<svg height="597pt" viewBox="-18 -62 597.33331 597" width="597pt" xmlns="http://www.w3.org/2000/svg"><path d="m57.828125 469.75h444.34375c31.703125 0 57.828125-26.386719 57.828125-58.089844v-268.289062c0-31.703125-26.125-57.371094-57.828125-57.371094h-216.28125l-54.582031-67.246094c-10.859375-13.5-27.222656-21.398437-44.550782-21.503906h-128.929687c-31.703125 0-57.828125 26.386719-57.828125 58.089844v356.320312c0 31.703125 26.125 58.089844 57.828125 58.089844zm482.171875-326.378906v268.289062c0 20.675782-17.148438 38.089844-37.828125 38.089844h-418.421875v-306.378906c0-20.671875 17.363281-37.371094 38.042969-37.371094h380.378906c20.679687 0 37.828125 16.699219 37.828125 37.371094zm-520-88.03125c0-20.679688 17.148438-38.089844 37.828125-38.089844h128.929687c11.320313.117188 21.988282 5.3125 29.058594 14.148438l44.257813 54.601562h-138.28125c-31.710938 0-58.042969 25.667969-58.042969 57.371094v306.378906h-5.921875c-20.679687 0-37.828125-17.414062-37.828125-38.089844zm0 0"/><path d="m202.964844 377.25h229.070312c5.523438 0 10-4.476562 10-10s-4.476562-10-10-10h-18.285156v-131.089844c.058594-2.644531-.9375-5.203125-2.769531-7.109375-1.832031-1.910156-4.34375-3.007812-6.992188-3.050781h-37.980469c-2.644531.042969-5.15625 1.140625-6.992187 3.050781-1.832031 1.90625-2.824219 4.464844-2.765625 7.109375v131.089844h-6.25v-73.46875c-.214844-5.671875-4.828125-10.1875-10.507812-10.28125h-37.988282c-5.625.117188-10.152344 4.65625-10.25 10.28125v73.46875h-6.25v-104.035156c-.011718-2.625-1.082031-5.136719-2.964844-6.960938-1.882812-1.828125-4.425781-2.816406-7.046874-2.753906h-37.984376c-2.574218-.042969-5.046874.976562-6.84375 2.8125-1.796874 1.835938-2.757812 4.335938-2.660156 6.902344v104.035156h-15.003906v-155.375c0-5.523438-4.476562-10-10-10s-10 4.476562-10 10v165.75c0 5.519531 4.941406 9.625 10.464844 9.625zm173.285156-141.25h17.5v121.25h-17.5zm-65 57.5h18.75v63.75h-18.75zm-63.75-30h17.5v93.75h-17.5zm0 0"/></svg>